<svg width="126" height="126" viewBox="0 0 126 126" fill="none" xmlns="http://www.w3.org/2000/svg">
<rect x="-4" y="4" width="117.319" height="117.319" rx="21" transform="matrix(-1 0 0 1 117.319 0)" fill="url(#paint0_linear_1434_5382)" stroke="url(#paint1_linear_1434_5382)" stroke-width="8"/>
<path d="M100 61.5C100 82.2107 83.2107 99 62.5 99C41.7893 99 25 82.2107 25 61.5C25 40.7893 41.7893 24 62.5 24C83.2107 24 100 40.7893 100 61.5Z" fill="#8F55FB"/>
<path d="M37 73.5625C37 70.423 39.548 67.875 42.6875 67.875H83.3125C86.452 67.875 89 70.423 89 73.5625V83.3125C89 84.8209 88.4008 86.2676 87.3342 87.3342C86.2676 88.4008 84.8209 89 83.3125 89H42.6875C41.1791 89 39.7324 88.4008 38.6658 87.3342C37.5992 86.2676 37 84.8209 37 83.3125V73.5625ZM43.5 42.6875C43.5 39.548 46.048 37 49.1875 37H76.8125C79.952 37 82.5 39.548 82.5 42.6875V58.9375C82.5 60.4459 81.9008 61.8926 80.8342 62.9592C79.7676 64.0258 78.3209 64.625 76.8125 64.625H49.1875C47.6791 64.625 46.2324 64.0258 45.1658 62.9592C44.0992 61.8926 43.5 60.4459 43.5 58.9375V42.6875ZM49.1875 41.875C48.972 41.875 48.7653 41.9606 48.613 42.113C48.4606 42.2653 48.375 42.472 48.375 42.6875V58.9375C48.375 59.386 48.739 59.75 49.1875 59.75H76.8125C77.028 59.75 77.2347 59.6644 77.387 59.512C77.5394 59.3597 77.625 59.153 77.625 58.9375V42.6875C77.625 42.472 77.5394 42.2653 77.387 42.113C77.2347 41.9606 77.028 41.875 76.8125 41.875H49.1875ZM42.6875 72.75C42.472 72.75 42.2653 72.8356 42.113 72.988C41.9606 73.1403 41.875 73.347 41.875 73.5625V83.3125C41.875 83.761 42.239 84.125 42.6875 84.125H83.3125C83.528 84.125 83.7347 84.0394 83.887 83.887C84.0394 83.7347 84.125 83.528 84.125 83.3125V73.5625C84.125 73.347 84.0394 73.1403 83.887 72.988C83.7347 72.8356 83.528 72.75 83.3125 72.75H42.6875Z" fill="#161B22"/>
<path d="M59.75 78.4375C59.75 77.791 60.0068 77.171 60.4639 76.7139C60.921 76.2568 61.541 76 62.1875 76H76.8125C77.459 76 78.079 76.2568 78.5361 76.7139C78.9932 77.171 79.25 77.791 79.25 78.4375C79.25 79.084 78.9932 79.704 78.5361 80.1611C78.079 80.6182 77.459 80.875 76.8125 80.875H62.1875C61.541 80.875 60.921 80.6182 60.4639 80.1611C60.0068 79.704 59.75 79.084 59.75 78.4375ZM46.75 78.4375C46.75 77.791 47.0068 77.171 47.4639 76.7139C47.921 76.2568 48.541 76 49.1875 76H50.8125C51.459 76 52.079 76.2568 52.5361 76.7139C52.9932 77.171 53.25 77.791 53.25 78.4375C53.25 79.084 52.9932 79.704 52.5361 80.1611C52.079 80.6182 51.459 80.875 50.8125 80.875H49.1875C48.541 80.875 47.921 80.6182 47.4639 80.1611C47.0068 79.704 46.75 79.084 46.75 78.4375Z" fill="#161B22"/>
<defs>
<linearGradient id="paint0_linear_1434_5382" x1="108.924" y1="-5.58419e-07" x2="36.3908" y2="62.7214" gradientUnits="userSpaceOnUse">
<stop stop-color="#79AEE7"/>
<stop offset="0.331593" stop-color="#4960A7"/>
<stop offset="1" stop-color="#101012"/>
</linearGradient>
<linearGradient id="paint1_linear_1434_5382" x1="110.29" y1="5.77534" x2="22.294" y2="92.2811" gradientUnits="userSpaceOnUse">
<stop stop-color="#EBFCF5"/>
<stop offset="0.295134" stop-color="#C47FEF"/>
<stop offset="0.57639" stop-color="#8F55FB"/>
<stop offset="1" stop-color="#241D29"/>
</linearGradient>
</defs>
</svg>
