<svg width="126" height="126" viewBox="0 0 126 126" fill="none" xmlns="http://www.w3.org/2000/svg">
<rect x="-4" y="4" width="117.319" height="117.319" rx="21" transform="matrix(-1 0 0 1 117.319 0)" fill="url(#paint0_linear_1434_5393)" stroke="url(#paint1_linear_1434_5393)" stroke-width="8"/>
<path d="M100 59.5C100 80.2107 83.2107 97 62.5 97C41.7893 97 25 80.2107 25 59.5C25 38.7893 41.7893 22 62.5 22C83.2107 22 100 38.7893 100 59.5Z" fill="#42E8FF"/>
<path d="M64.3655 36.2824L82.7405 41.9817C83.9773 42.365 85.0563 43.1194 85.822 44.1359C86.5876 45.1523 87.0001 46.3784 87 47.6369V59.5783C87 64.8909 85.88 70.373 82.4395 75.4617C78.999 80.5436 73.392 85.0046 64.8275 88.5396C64.0916 88.8434 63.2999 89 62.5 89C61.7001 89 60.9084 88.8434 60.1725 88.5396C51.608 85.0046 46.001 80.5436 42.5605 75.4617C39.12 70.373 38 64.8909 38 59.5783V47.6369C37.9999 46.3784 38.4124 45.1523 39.178 44.1359C39.9437 43.1194 41.0227 42.365 42.2595 41.9817L60.6345 36.2824C61.8478 35.9059 63.1522 35.9059 64.3655 36.2824ZM62.2305 41.1302L62.234 41.1336L43.859 46.8329C43.6832 46.8878 43.5297 46.9951 43.4203 47.1394C43.311 47.2838 43.2514 47.4578 43.25 47.6369V59.5783C43.25 64.192 44.2125 68.6225 46.9495 72.6697C49.6935 76.7203 54.373 80.6148 62.2305 83.858C62.3157 83.8933 62.4074 83.9115 62.5 83.9115C62.5926 83.9115 62.6843 83.8933 62.7695 83.858C70.627 80.6114 75.3065 76.7237 78.0505 72.6731C80.7875 68.6225 81.75 64.1852 81.75 59.5783V47.6369C81.7499 47.4571 81.6908 47.282 81.5814 47.1369C81.4719 46.9918 81.3177 46.8841 81.141 46.8295L62.766 41.1302C62.5919 41.076 62.4046 41.076 62.2305 41.1302ZM67.75 57.8821C67.75 59.7004 66.749 61.3831 65.125 62.2922V70.6037C65.125 71.2785 64.8484 71.9257 64.3562 72.4028C63.8639 72.88 63.1962 73.1481 62.5 73.1481C61.8038 73.1481 61.1361 72.88 60.6438 72.4028C60.1516 71.9257 59.875 71.2785 59.875 70.6037V62.2922C59.077 61.8457 58.4144 61.2034 57.9536 60.43C57.4928 59.6566 57.2501 58.7793 57.25 57.8862C57.2499 56.993 57.4922 56.1156 57.9527 55.3421C58.4133 54.5685 59.0757 53.926 59.8735 53.4792C60.6714 53.0324 61.5765 52.797 62.4979 52.7967C63.4193 52.7963 64.3246 53.031 65.1228 53.4772C65.921 53.9234 66.584 54.5653 67.0452 55.3385C67.5063 56.1117 67.7494 56.989 67.75 57.8821Z" fill="#161B22"/>
<defs>
<linearGradient id="paint0_linear_1434_5393" x1="108.924" y1="-5.58419e-07" x2="36.3908" y2="62.7214" gradientUnits="userSpaceOnUse">
<stop stop-color="#79AEE7"/>
<stop offset="0.331593" stop-color="#4960A7"/>
<stop offset="1" stop-color="#101012"/>
</linearGradient>
<linearGradient id="paint1_linear_1434_5393" x1="110.29" y1="5.77534" x2="22.294" y2="92.2811" gradientUnits="userSpaceOnUse">
<stop stop-color="#1DCFC4"/>
<stop offset="0.295134" stop-color="#0BC6E0"/>
<stop offset="0.57639" stop-color="#11B2C8"/>
<stop offset="1" stop-color="#164A47"/>
</linearGradient>
</defs>
</svg>
