<svg width="126" height="126" viewBox="0 0 126 126" fill="none" xmlns="http://www.w3.org/2000/svg">
<rect x="-4" y="4" width="117.319" height="117.319" rx="21" transform="matrix(-1 0 0 1 117.319 0)" fill="url(#paint0_linear_1434_5377)" stroke="url(#paint1_linear_1434_5377)" stroke-width="8"/>
<path d="M100 62.5C100 83.2107 83.2107 100 62.5 100C41.7893 100 25 83.2107 25 62.5C25 41.7893 41.7893 25 62.5 25C83.2107 25 100 41.7893 100 62.5Z" fill="#FF0000"/>
<path d="M40 47.9062C40 45.129 42.254 42.875 45.0312 42.875H80.9688C83.746 42.875 86 45.129 86 47.9062V52.2188C86 53.5531 85.4699 54.8328 84.5264 55.7764C83.5828 56.7199 82.3031 57.25 80.9688 57.25H45.0312C43.6969 57.25 42.4172 56.7199 41.4736 55.7764C40.5301 54.8328 40 53.5531 40 52.2188V47.9062ZM45.0312 60.125C45.6031 60.125 46.1516 60.3522 46.5559 60.7565C46.9603 61.1609 47.1875 61.7094 47.1875 62.2812V78.0938C47.1875 78.4905 47.5095 78.8125 47.9062 78.8125H78.0938C78.2844 78.8125 78.4672 78.7368 78.602 78.602C78.7368 78.4672 78.8125 78.2844 78.8125 78.0938V62.2812C78.8125 61.7094 79.0397 61.1609 79.4441 60.7565C79.8484 60.3522 80.3969 60.125 80.9688 60.125C81.5406 60.125 82.0891 60.3522 82.4934 60.7565C82.8978 61.1609 83.125 61.7094 83.125 62.2812V78.0938C83.125 79.4281 82.5949 80.7078 81.6514 81.6514C80.7078 82.5949 79.4281 83.125 78.0938 83.125H47.9062C46.5719 83.125 45.2922 82.5949 44.3486 81.6514C43.4051 80.7078 42.875 79.4281 42.875 78.0938V62.2812C42.875 61.7094 43.1022 61.1609 43.5066 60.7565C43.9109 60.3522 44.4594 60.125 45.0312 60.125ZM45.0312 47.1875C44.8406 47.1875 44.6578 47.2632 44.523 47.398C44.3882 47.5328 44.3125 47.7156 44.3125 47.9062V52.2188C44.3125 52.6155 44.6345 52.9375 45.0312 52.9375H80.9688C81.1594 52.9375 81.3422 52.8618 81.477 52.727C81.6118 52.5922 81.6875 52.4094 81.6875 52.2188V47.9062C81.6875 47.7156 81.6118 47.5328 81.477 47.398C81.3422 47.2632 81.1594 47.1875 80.9688 47.1875H45.0312ZM57.9688 63H68.0312C68.6031 63 69.1516 63.2272 69.5559 63.6316C69.9603 64.0359 70.1875 64.5844 70.1875 65.1562C70.1875 65.7281 69.9603 66.2766 69.5559 66.6809C69.1516 67.0853 68.6031 67.3125 68.0312 67.3125H57.9688C57.3969 67.3125 56.8484 67.0853 56.444 66.6809C56.0397 66.2766 55.8125 65.7281 55.8125 65.1562C55.8125 64.5844 56.0397 64.0359 56.444 63.6316C56.8484 63.2272 57.3969 63 57.9688 63Z" fill="black"/>
<defs>
<linearGradient id="paint0_linear_1434_5377" x1="108.924" y1="-5.58419e-07" x2="36.3908" y2="62.7214" gradientUnits="userSpaceOnUse">
<stop stop-color="#79AEE7"/>
<stop offset="0.331593" stop-color="#4960A7"/>
<stop offset="1" stop-color="#101012"/>
</linearGradient>
<linearGradient id="paint1_linear_1434_5377" x1="110.29" y1="5.77534" x2="22.294" y2="92.2811" gradientUnits="userSpaceOnUse">
<stop stop-color="#FF0000"/>
<stop offset="0.295134" stop-color="#DF3E3E"/>
<stop offset="0.57639" stop-color="#C61818"/>
<stop offset="1" stop-color="#29291D"/>
</linearGradient>
</defs>
</svg>
