<svg width="588" height="167" viewBox="0 0 588 167" fill="none" xmlns="http://www.w3.org/2000/svg">
<path d="M97.4797 164L4.27969 3.2H11.2797L104.48 164H97.4797ZM112.68 164L19.6797 3.2H26.6797L119.68 164H112.68ZM128.08 164L35.0797 3.2H42.0797L135.08 164H128.08ZM75.4797 46.6L72.0797 41L93.8797 3.2H100.88L75.4797 46.6ZM83.0797 60L79.4797 54L109.28 3.2H116.28L83.0797 60ZM90.6797 73L87.0797 67.4L124.48 3.2H131.48L90.6797 73ZM0.679688 164L45.0797 87.8L48.4797 93.8L7.67969 164H0.679688ZM15.8797 164L52.6797 101L56.0797 107L22.8797 164H15.8797ZM31.2797 164L60.2797 114.2L63.6797 120.2L38.2797 164H31.2797ZM243.948 97.2L248.348 92.8L299.348 144L295.148 148.4L243.948 97.2ZM234.748 106.4L238.948 102.2L290.148 153.4L285.948 157.6L234.748 106.4ZM225.348 115.8L229.548 111.6L280.748 162.8L276.548 167L225.348 115.8ZM212.548 140.6C200.682 140.6 190.482 138.067 181.948 133C173.415 127.8 166.882 120.867 162.348 112.2C157.815 103.533 155.548 94 155.548 83.6C155.548 73.0667 157.815 63.5333 162.348 55C166.882 46.3333 173.415 39.4667 181.948 34.4C190.482 29.2 200.682 26.6 212.548 26.6C224.415 26.6 234.548 29.2 242.948 34.4C251.482 39.4667 258.015 46.3333 262.548 55C267.082 63.5333 269.348 73.0667 269.348 83.6C269.348 89.8667 268.415 96.1333 266.548 102.4L261.548 97.2C262.615 92.6667 263.148 88.1333 263.148 83.6C263.148 74.2667 261.148 65.8 257.148 58.2C253.148 50.4667 247.348 44.3333 239.748 39.8C232.282 35.1333 223.215 32.8 212.548 32.8C201.882 32.8 192.682 35.1333 184.948 39.8C177.348 44.3333 171.548 50.4667 167.548 58.2C163.548 65.8 161.548 74.2667 161.548 83.6C161.548 92.9333 163.548 101.467 167.548 109.2C171.548 116.8 177.348 122.933 184.948 127.6C192.682 132.133 201.882 134.4 212.548 134.4C219.748 134.4 226.082 133.333 231.548 131.2L236.348 136C229.148 139.067 221.215 140.6 212.548 140.6ZM212.548 153.8C201.882 153.8 192.215 152 183.548 148.4C175.015 144.667 167.615 139.6 161.348 133.2C155.215 126.8 150.482 119.4 147.148 111C143.948 102.467 142.348 93.3333 142.348 83.6C142.348 73.8667 143.948 64.8 147.148 56.4C150.482 47.8667 155.215 40.4 161.348 34C167.615 27.4667 175.015 22.4 183.548 18.8C192.215 15.2 201.882 13.4 212.548 13.4C223.215 13.4 232.815 15.2 241.348 18.8C250.015 22.4 257.415 27.4667 263.548 34C269.815 40.4 274.548 47.8667 277.748 56.4C281.082 64.8 282.748 73.8667 282.748 83.6C282.748 93.8667 280.815 103.6 276.948 112.8L272.348 108C275.148 100.4 276.548 92.2667 276.548 83.6C276.548 71.7333 273.948 61 268.748 51.4C263.548 41.6667 256.148 33.9333 246.548 28.2C236.948 22.4667 225.615 19.6 212.548 19.6C199.482 19.6 188.082 22.4667 178.348 28.2C168.748 33.9333 161.348 41.6667 156.148 51.4C150.948 61 148.348 71.7333 148.348 83.6C148.348 95.3333 150.948 106.067 156.148 115.8C161.348 125.533 168.748 133.267 178.348 139C188.082 144.733 199.482 147.6 212.548 147.6C223.082 147.6 232.815 145.533 241.748 141.4L246.348 146C241.415 148.533 236.148 150.467 230.548 151.8C224.948 153.133 218.948 153.8 212.548 153.8ZM212.548 167C200.015 167 188.615 164.867 178.348 160.6C168.215 156.2 159.482 150.2 152.148 142.6C144.815 135 139.148 126.2 135.148 116.2C131.148 106.067 129.148 95.2 129.148 83.6C129.148 72 131.148 61.2 135.148 51.2C139.148 41.0667 144.815 32.2 152.148 24.6C159.482 17 168.215 11.0667 178.348 6.8C188.615 2.39999 200.015 0.199987 212.548 0.199987C225.082 0.199987 236.415 2.39999 246.548 6.8C256.815 11.0667 265.615 17 272.948 24.6C280.282 32.2 285.948 41.0667 289.948 51.2C293.948 61.2 295.948 72 295.948 83.6C295.948 90.6667 295.148 97.5333 293.548 104.2C292.082 110.733 289.882 116.933 286.948 122.8L282.348 118.2C287.282 107.533 289.748 96 289.748 83.6C289.748 72.9333 287.882 62.9333 284.148 53.6C280.548 44.1333 275.348 35.8667 268.548 28.8C261.748 21.7333 253.615 16.2 244.148 12.2C234.682 8.19999 224.148 6.19999 212.548 6.19999C200.815 6.19999 190.215 8.19999 180.748 12.2C171.282 16.2 163.148 21.7333 156.348 28.8C149.548 35.8667 144.282 44.1333 140.548 53.6C136.948 62.9333 135.148 72.9333 135.148 83.6C135.148 94.2667 136.948 104.333 140.548 113.8C144.282 123.133 149.548 131.333 156.348 138.4C163.148 145.467 171.282 151 180.748 155C190.215 159 200.815 161 212.548 161C220.015 161 227.015 160.2 233.548 158.6C240.082 156.867 246.082 154.467 251.548 151.4L256.148 155.8C250.015 159.4 243.282 162.133 235.948 164C228.615 166 220.815 167 212.548 167ZM371.575 140.6C363.975 140.6 357.642 139.067 352.575 136C347.642 132.933 343.908 128.867 341.375 123.8C338.975 118.6 337.775 112.867 337.775 106.6V3.2H343.775V106.6C343.775 114.333 345.975 120.933 350.375 126.4C354.775 131.867 361.842 134.6 371.575 134.6C381.308 134.6 388.375 131.867 392.775 126.4C397.175 120.933 399.375 114.333 399.375 106.6V3.2H405.375V106.6C405.375 112.867 404.108 118.6 401.575 123.8C399.175 128.867 395.442 132.933 390.375 136C385.442 139.067 379.175 140.6 371.575 140.6ZM371.575 167C359.175 167 348.442 164.333 339.375 159C330.442 153.533 323.508 146.2 318.575 137C313.775 127.8 311.375 117.667 311.375 106.6V3.2H317.375V106.6C317.375 116.6 319.508 125.733 323.775 134C328.175 142.267 334.375 148.867 342.375 153.8C350.508 158.6 360.242 161 371.575 161C382.908 161 392.575 158.6 400.575 153.8C408.708 148.867 414.908 142.267 419.175 134C423.575 125.733 425.775 116.6 425.775 106.6V3.2H431.775V106.6C431.775 117.667 429.308 127.8 424.375 137C419.575 146.2 412.708 153.533 403.775 159C394.842 164.333 384.108 167 371.575 167ZM371.575 153.8C361.575 153.8 353.042 151.667 345.975 147.4C339.042 143.133 333.708 137.467 329.975 130.4C326.375 123.2 324.575 115.267 324.575 106.6V3.2H330.575V106.6C330.575 114.2 332.108 121.133 335.175 127.4C338.375 133.533 343.042 138.467 349.175 142.2C355.308 145.933 362.775 147.8 371.575 147.8C380.508 147.8 387.975 145.933 393.975 142.2C400.108 138.467 404.708 133.533 407.775 127.4C410.975 121.133 412.575 114.2 412.575 106.6V3.2H418.575V106.6C418.575 115.267 416.708 123.2 412.975 130.4C409.375 137.467 404.042 143.133 396.975 147.4C390.042 151.667 381.575 153.8 371.575 153.8ZM463.75 164L521.95 3.2H528.35L470.15 164H463.75ZM435.75 164L493.95 3.2H500.15L442.15 164H435.75ZM449.75 164L507.75 3.2H514.35L456.15 164H449.75ZM580.95 164L528.75 19.8L531.95 10.8L587.35 164H580.95ZM566.95 164L521.95 39.4L524.95 30.2L573.35 164H566.95ZM552.95 164L514.95 58.8L518.15 49.8L559.35 164H552.95ZM496.35 110.8L498.55 104.8H524.95L527.15 110.8H496.35ZM491.55 124.2L493.75 118.2H529.75L531.95 124.2H491.55ZM486.75 137.4L488.95 131.4H534.55L536.75 137.4H486.75Z" fill="url(#paint0_linear_1402_394)"/>
<defs>
<linearGradient id="paint0_linear_1402_394" x1="302.136" y1="-77.6238" x2="372.544" y2="356.338" gradientUnits="userSpaceOnUse">
<stop stop-color="white"/>
<stop offset="0.277555" stop-color="#CAF9FF"/>
<stop offset="1" stop-color="#42E8FF"/>
</linearGradient>
</defs>
</svg>
